<svg width="142" height="52" viewBox="0 0 142 52" fill="none" xmlns="http://www.w3.org/2000/svg">
<path d="M48.6699 30.8884L49 8.95574L29.5721 0L21.1328 5.45218L24.6526 7.93566L29.8854 4.5551L45.0372 11.5336L44.7705 28.6547L36.4412 34.0354L34.4394 20.8497L30.5092 23.3608L33.3064 40.8452L48.6699 30.8884Z" fill="#15AD7A"/>
<path d="M32.3373 17.4461L17.9883 7.48077L0 19.1011L16.5365 30.0341L19.0922 50L30.327 42.7431L29.6444 38.4264L22.6196 42.9643L20.3296 27.5859L7.72604 18.8637L17.7962 12.36L28.3764 19.9934L32.3373 17.4461Z" fill="#00895C"/>
<path d="M69.8013 4.18914C69.2241 3.94847 68.6072 3.82031 67.9831 3.81139C66.4084 3.81139 65.6211 4.67773 65.6211 6.41041V8.12743H69.2574V11.7976H65.6222V24.2566H60.7276V11.797H58.0547V8.12685H60.7276V6.12667C60.6941 5.30126 60.8348 4.4781 61.1403 3.7122C61.4457 2.9463 61.9089 2.2553 62.4988 1.6853C63.6796 0.563452 65.2854 0.00251137 67.3162 0.00251137C68.1558 -0.0180856 68.9937 0.0881064 69.8024 0.317597L69.8013 4.18914Z" fill="white"/>
<path d="M76.8415 0.378503H71.9623V24.1846H76.8415V0.378503Z" fill="white"/>
<path d="M95.2519 17.6097H84.8689C85.0346 19.9513 86.49 21.122 89.2352 21.122C90.8607 21.1568 92.4621 20.7197 93.8505 19.8623V23.4536C92.0644 24.3215 90.0957 24.7325 88.1166 24.6507C85.5473 24.6507 83.553 23.9288 82.1336 22.4851C80.7143 21.0414 80.0048 19.028 80.0052 16.4451C80.0052 13.7673 80.7717 11.6463 82.3048 10.0819C83.0383 9.31832 83.919 8.71597 84.892 8.31226C85.8651 7.90856 86.9097 7.71214 87.9609 7.73526C90.2813 7.73526 92.0751 8.43352 93.3421 9.83003C94.6092 11.2265 95.2437 13.1221 95.2456 15.5167L95.2519 17.6097ZM90.699 14.554C90.699 12.2442 89.7771 11.089 87.9334 11.0886C87.5414 11.09 87.1547 11.1797 86.8012 11.3513C86.4477 11.5229 86.1363 11.7722 85.8897 12.0809C85.2995 12.7776 84.9335 13.6405 84.8409 14.554H90.699Z" fill="white"/>
<path d="M122.45 23.6731C121.343 24.3238 119.742 24.6493 117.648 24.6497C116.56 24.6969 115.474 24.5219 114.454 24.135C113.434 23.7481 112.502 23.1573 111.712 22.3977C110.958 21.6408 110.366 20.7334 109.976 19.733C109.585 18.7325 109.404 17.6609 109.443 16.5857C109.443 13.8449 110.254 11.6844 111.875 10.1041C113.496 8.52386 115.664 7.73374 118.378 7.73374C120.253 7.73374 121.611 7.98518 122.45 8.48808V12.7095C121.464 11.9459 120.256 11.5359 119.015 11.5438C118.402 11.5114 117.789 11.6056 117.214 11.8209C116.638 12.0362 116.112 12.3679 115.667 12.796C115.241 13.2576 114.912 13.802 114.699 14.3963C114.487 14.9905 114.396 15.6222 114.431 16.2532C114.397 16.8652 114.484 17.478 114.686 18.0555C114.889 18.633 115.204 19.1636 115.612 19.6159C116.042 20.0342 116.552 20.3582 117.111 20.5678C117.67 20.7775 118.265 20.8682 118.86 20.8344C120.144 20.8149 121.393 20.4091 122.449 19.6687L122.45 23.6731Z" fill="white"/>
<path d="M140.941 24.2563H136.047V15.0881C136.047 12.7256 135.197 11.5442 133.498 11.5438C133.095 11.532 132.693 11.6154 132.327 11.7876C131.96 11.9598 131.638 12.216 131.385 12.5361C130.828 13.2531 130.543 14.1483 130.579 15.0602V24.2586H125.668V0.379434H130.579V10.5231H130.642C131.142 9.66185 131.859 8.95036 132.718 8.46109C133.578 7.97183 134.551 7.72227 135.536 7.73781C139.142 7.73781 140.944 9.94282 140.944 14.3529L140.941 24.2563Z" fill="white"/>
<path d="M107.626 11.7972V8.1276H104.052V3.22899L103.99 3.24698L99.1568 6.40189V8.1276H96.5772V11.7978H99.1568V19.1846C99.1568 22.8283 100.887 24.6501 104.347 24.6501C105.469 24.7168 106.592 24.5181 107.625 24.0699V20.384C107.138 20.6715 106.586 20.8286 106.022 20.8407C104.707 20.8407 104.049 20.0007 104.049 18.3206V11.7972H107.626Z" fill="white"/>
<path d="M63.5784 45.8307C63.0664 45.8307 62.5464 45.7747 62.0184 45.6627C61.4904 45.5667 60.9864 45.4067 60.5064 45.1827C60.0264 44.9587 59.6024 44.6707 59.2344 44.3187C58.8824 43.9667 58.6264 43.5427 58.4664 43.0467H59.5944C59.8504 43.5427 60.2024 43.9347 60.6504 44.2227C61.0984 44.4947 61.5784 44.6867 62.0904 44.7987C62.6184 44.9107 63.1224 44.9667 63.6024 44.9667C64.0184 44.9667 64.4504 44.9347 64.8984 44.8707C65.3464 44.7907 65.7624 44.6627 66.1464 44.4867C66.5464 44.2947 66.8664 44.0387 67.1064 43.7187C67.3464 43.3827 67.4664 42.9587 67.4664 42.4467C67.4664 41.9187 67.3304 41.5027 67.0584 41.1987C66.8024 40.8947 66.4744 40.6627 66.0744 40.5027C65.6744 40.3267 65.2824 40.1987 64.8984 40.1187C64.6744 40.0707 64.4344 40.0227 64.1784 39.9747C63.9224 39.9267 63.6584 39.8787 63.3864 39.8307C62.9064 39.7507 62.4024 39.6467 61.8744 39.5187C61.3464 39.3747 60.8504 39.1747 60.3864 38.9187C59.9224 38.6627 59.5464 38.3187 59.2584 37.8867C58.9704 37.4547 58.8264 36.9027 58.8264 36.2307C58.8264 35.5747 58.9544 35.0307 59.2104 34.5987C59.4824 34.1667 59.8344 33.8227 60.2664 33.5667C60.7144 33.3107 61.2104 33.1267 61.7544 33.0147C62.3144 32.9027 62.8824 32.8467 63.4584 32.8467C64.0824 32.8467 64.6984 32.9347 65.3064 33.1107C65.9304 33.2867 66.4744 33.5667 66.9384 33.9507C67.4024 34.3347 67.7304 34.8387 67.9224 35.4627H66.9144C66.6264 34.8387 66.1384 34.3907 65.4504 34.1187C64.7624 33.8467 64.0904 33.7107 63.4344 33.7107C63.0984 33.7107 62.7224 33.7347 62.3064 33.7827C61.8904 33.8307 61.4904 33.9427 61.1064 34.1187C60.7384 34.2787 60.4264 34.5267 60.1704 34.8627C59.9304 35.1987 59.8104 35.6467 59.8104 36.2067C59.8104 36.7507 59.9464 37.1907 60.2184 37.5267C60.4904 37.8627 60.8344 38.1267 61.2504 38.3187C61.6664 38.4947 62.0904 38.6387 62.5224 38.7507C63.0184 38.8627 63.5304 38.9667 64.0584 39.0627C64.6024 39.1427 65.1304 39.2467 65.6424 39.3747C66.2024 39.5187 66.6904 39.7107 67.1064 39.9507C67.5224 40.1907 67.8504 40.5027 68.0904 40.8867C68.3304 41.2707 68.4504 41.7507 68.4504 42.3267C68.4504 43.0147 68.3064 43.5827 68.0184 44.0307C67.7304 44.4787 67.3464 44.8387 66.8664 45.1107C66.4024 45.3667 65.8824 45.5507 65.3064 45.6627C64.7304 45.7747 64.1544 45.8307 63.5784 45.8307ZM78.9841 45.8307C77.7201 45.8307 76.8401 45.4787 76.3441 44.7747C75.8641 44.0547 75.6241 43.0867 75.6241 41.8707V33.8547H73.3921V33.0147H75.6241V29.2227H76.6321V33.0147H80.9761V33.8547H76.6321V41.5827C76.6321 42.1267 76.6801 42.6627 76.7761 43.1907C76.8881 43.7027 77.1201 44.1267 77.4721 44.4627C77.8241 44.7987 78.3761 44.9667 79.1281 44.9667C79.4161 44.9667 79.7201 44.9267 80.0401 44.8467C80.3761 44.7667 80.6561 44.6467 80.8801 44.4867L81.2401 45.2787C81.0321 45.4067 80.8081 45.5187 80.5681 45.6147C80.3281 45.6947 80.0801 45.7507 79.8241 45.7827C79.5681 45.8147 79.2881 45.8307 78.9841 45.8307ZM91.6539 45.8307C89.8619 45.8307 88.5659 45.3427 87.7659 44.3667C86.9659 43.3907 86.5659 42.0067 86.5659 40.2147V33.0147H87.5739V40.2387C87.5739 41.1347 87.7019 41.9427 87.9579 42.6627C88.2299 43.3827 88.6619 43.9507 89.2539 44.3667C89.8619 44.7667 90.6619 44.9667 91.6539 44.9667C92.6939 44.9667 93.5099 44.7747 94.1019 44.3907C94.7099 43.9907 95.1419 43.4387 95.3979 42.7347C95.6699 42.0147 95.8059 41.1827 95.8059 40.2387V33.0147H96.8139V40.2147C96.8139 41.9907 96.4139 43.3747 95.6139 44.3667C94.8139 45.3427 93.4939 45.8307 91.6539 45.8307ZM108.462 45.8307C107.118 45.8307 106.038 45.5347 105.222 44.9427C104.406 44.3347 103.814 43.5427 103.446 42.5667C103.094 41.5907 102.918 40.5267 102.918 39.3747C102.918 38.0627 103.15 36.9187 103.614 35.9427C104.078 34.9667 104.742 34.2067 105.606 33.6627C106.47 33.1187 107.51 32.8467 108.726 32.8467C109.286 32.8467 109.862 32.9347 110.454 33.1107C111.046 33.2707 111.614 33.5427 112.158 33.9267C112.702 34.2947 113.15 34.7987 113.502 35.4387V28.6947H114.51V45.6627H113.502V42.9507C113.118 43.6707 112.646 44.2467 112.086 44.6787C111.526 45.0947 110.926 45.3907 110.286 45.5667C109.662 45.7427 109.054 45.8307 108.462 45.8307ZM108.558 44.9667C109.614 44.9667 110.51 44.7107 111.246 44.1987C111.998 43.6707 112.566 42.9747 112.95 42.1107C113.35 41.2467 113.55 40.3027 113.55 39.2787C113.55 38.2547 113.366 37.3267 112.998 36.4947C112.646 35.6467 112.11 34.9747 111.39 34.4787C110.67 33.9667 109.766 33.7107 108.678 33.7107C107.574 33.7107 106.67 33.9747 105.966 34.5027C105.262 35.0307 104.742 35.7187 104.406 36.5667C104.086 37.4147 103.926 38.3267 103.926 39.3027C103.926 39.9907 103.99 40.6707 104.118 41.3427C104.262 42.0147 104.502 42.6227 104.838 43.1667C105.19 43.7107 105.662 44.1507 106.254 44.4867C106.862 44.8067 107.63 44.9667 108.558 44.9667ZM121.143 45.6627V33.0147H122.151V45.6627H121.143ZM121.623 30.6387C121.351 30.6387 121.127 30.5587 120.951 30.3987C120.775 30.2387 120.687 29.9987 120.687 29.6787C120.687 29.3747 120.775 29.1507 120.951 29.0067C121.143 28.8467 121.375 28.7667 121.647 28.7667C121.919 28.7667 122.143 28.8467 122.319 29.0067C122.495 29.1667 122.583 29.3907 122.583 29.6787C122.583 29.9827 122.487 30.2227 122.295 30.3987C122.119 30.5587 121.895 30.6387 121.623 30.6387ZM134.282 45.8307C132.97 45.8307 131.866 45.5507 130.97 44.9907C130.09 44.4307 129.426 43.6627 128.978 42.6867C128.53 41.7107 128.306 40.5987 128.306 39.3507C128.306 38.0867 128.53 36.9667 128.978 35.9907C129.426 35.0147 130.09 34.2467 130.97 33.6867C131.866 33.1267 132.97 32.8467 134.282 32.8467C135.594 32.8467 136.69 33.1267 137.57 33.6867C138.466 34.2467 139.138 35.0147 139.586 35.9907C140.05 36.9667 140.282 38.0867 140.282 39.3507C140.282 40.5987 140.05 41.7107 139.586 42.6867C139.138 43.6627 138.466 44.4307 137.57 44.9907C136.69 45.5507 135.594 45.8307 134.282 45.8307ZM134.282 44.9667C135.434 44.9667 136.378 44.7187 137.114 44.2227C137.85 43.7267 138.394 43.0547 138.746 42.2067C139.098 41.3587 139.274 40.4067 139.274 39.3507C139.274 38.3107 139.098 37.3667 138.746 36.5187C138.394 35.6547 137.85 34.9747 137.114 34.4787C136.378 33.9667 135.434 33.7107 134.282 33.7107C133.13 33.7107 132.186 33.9667 131.45 34.4787C130.714 34.9747 130.17 35.6547 129.818 36.5187C129.482 37.3667 129.314 38.3107 129.314 39.3507C129.314 40.4067 129.482 41.3587 129.818 42.2067C130.17 43.0547 130.714 43.7267 131.45 44.2227C132.186 44.7187 133.13 44.9667 134.282 44.9667Z" fill="white"/>
</svg>
